<svg width="20" height="20" viewBox="0 0 20 20" fill="none" xmlns="http://www.w3.org/2000/svg">
<path fill-rule="evenodd" clip-rule="evenodd" d="M1.66663 10C1.66663 5.40002 5.39996 1.66669 9.99996 1.66669C14.6 1.66669 18.3333 5.40002 18.3333 10V11.1917C18.3333 12.8334 17.0583 14.1667 15.4166 14.1667C14.425 14.1667 13.4916 13.6834 12.95 12.9417C12.2 13.7 11.15 14.1667 9.99996 14.1667C7.69996 14.1667 5.83329 12.3 5.83329 10C5.83329 7.70002 7.69996 5.83335 9.99996 5.83335C12.3 5.83335 14.1666 7.70002 14.1666 10V11.1917C14.1666 11.85 14.7583 12.5 15.4166 12.5C16.075 12.5 16.6666 11.85 16.6666 11.1917V10C16.6666 6.38335 13.6166 3.33335 9.99996 3.33335C6.38329 3.33335 3.33329 6.38335 3.33329 10C3.33329 13.6167 6.38329 16.6667 9.99996 16.6667H14.1666V18.3334H9.99996C5.39996 18.3334 1.66663 14.6 1.66663 10ZM7.49996 10C7.49996 11.3834 8.61663 12.5 9.99996 12.5C11.3833 12.5 12.5 11.3834 12.5 10C12.5 8.61669 11.3833 7.50002 9.99996 7.50002C8.61663 7.50002 7.49996 8.61669 7.49996 10Z" fill="white"/>
</svg>
